HIERARCHY
ROOT Hips
{
  OFFSET 57.8838 95.319 338.509
  CHANNELS 6 Xposition Yposition Zposition Zrotation Xrotation Yrotation
  JOINT LeftUpLeg
  {
    OFFSET 8.64259 1.95398 -2.38835
    CHANNELS 3 Zrotation Xrotation Yrotation
    JOINT LeftLeg
    {
      OFFSET 43.7702 0 0
      CHANNELS 3 Zrotation Xrotation Yrotation
      JOINT LeftFoot
      {
        OFFSET 40.6238 0 0
        CHANNELS 3 Zrotation Xrotation Yrotation
        JOINT LeftToeBase
        {
          OFFSET 12.7242 0 0
          CHANNELS 3 Zrotation Xrotation Yrotation
          End Site
          {
            OFFSET 0 0 0
          }
        }
      }
    }
  }
  JOINT RightUpLeg
  {
    OFFSET -8.2249 1.95398 -2.59336
    CHANNELS 3 Zrotation Xrotation Yrotation
    JOINT RightLeg
    {
      OFFSET 43.5653 0 0
      CHANNELS 3 Zrotation Xrotation Yrotation
      JOINT RightFoot
      {
        OFFSET 40.6238 0 0
        CHANNELS 3 Zrotation Xrotation Yrotation
        JOINT RightToeBase
        {
          OFFSET 12.7242 0 0
          CHANNELS 3 Zrotation Xrotation Yrotation
          End Site
          {
            OFFSET 0 0 0
          }
        }
      }
    }
  }
  JOINT Spine
  {
    OFFSET 0.165834 0.87714 6.61349
    CHANNELS 3 Zrotation Xrotation Yrotation
    JOINT Spine1
    {
      OFFSET 7.38963 1.71661e-005 0
      CHANNELS 3 Zrotation Xrotation Yrotation
      JOINT Spine2
      {
        OFFSET 11.9445 1.14441e-005 0
        CHANNELS 3 Zrotation Xrotation Yrotation
        JOINT Spine3
        {
          OFFSET 14.7254 4.19617e-005 0
          CHANNELS 3 Zrotation Xrotation Yrotation
          JOINT Spine4
          {
            OFFSET 10.9679 0 0
            CHANNELS 3 Zrotation Xrotation Yrotation
            JOINT RightShoulder
            {
              OFFSET 2.46616 -1.6653 3.69651
              CHANNELS 3 Zrotation Xrotation Yrotation
              JOINT RightArm
              {
                OFFSET 13.0012 0 0
                CHANNELS 3 Zrotation Xrotation Yrotation
                JOINT RightForeArm
                {
                  OFFSET 28.7848 1.62311e-005 0
                  CHANNELS 3 Zrotation Xrotation Yrotation
                  JOINT RightHand
                  {
                    OFFSET 26.5688 1.62095e-005 0
                    CHANNELS 3 Zrotation Xrotation Yrotation
                    End Site
                    {
                      OFFSET 0 0 0
                    }
                  }
                }
              }
            }
            JOINT LeftShoulder
            {
              OFFSET 2.38034 -1.29275 -3.7523
              CHANNELS 3 Zrotation Xrotation Yrotation
              JOINT LeftArm
              {
                OFFSET 16.3182 6.07031e-005 0
                CHANNELS 3 Zrotation Xrotation Yrotation
                JOINT LeftForeArm
                {
                  OFFSET 27.0901 0 0
                  CHANNELS 3 Zrotation Xrotation Yrotation
                  JOINT LeftHand
                  {
                    OFFSET 24.5451 1.51738e-005 0
                    CHANNELS 3 Zrotation Xrotation Yrotation
                    End Site
                    {
                      OFFSET 0 0 0
                    }
                  }
                }
              }
            }
            JOINT Neck
            {
              OFFSET 5.0226 -0.0266342 0
              CHANNELS 3 Zrotation Xrotation Yrotation
              JOINT Head
              {
                OFFSET 6.69364 2.86102e-005 0
                CHANNELS 3 Zrotation Xrotation Yrotation
                End Site
                {
                  OFFSET 0 0 0
                }
              }
            }
          }
        }
      }
    }
  }
}
MOTION
Frames:	7
Frame Time:	0.0416667
-150.224 87.9318 153.009 -77.5617 -36.6943 92.7226 14.8646 8.54138 -85.8966 -46.3844 -0.86617 -21.0973 49.7502 -10.939 0.388469 50.4755 11.7659 17.2016 -21.7505 -15.9259 -83.7641 -27.497 7.25667 6.77224 64.5091 4.9061 5.80232 22.4456 7.91448 2.88414 1.56523 -12.0992 -88.4104 51.0897 3.76085 1.083 39.4239 3.80488 0.916195 16.8574 3.2614 2.16416 36.8701 3.2614 2.16415 97.107 -53.1591 -89.5495 27.099 -0.625215 -4.64299 2.03901 -12.3598 -11.6502 -9.4626 -0.528142 1.40151 -83.7859 -51.9235 88.2793 -41.8208 -21.4482 -29.6242 5.06072 72.7434 0.0284758 -0.169826 -0.0849087 -15.9433 16.1077 0.897367 -6.50237 -15.8552 0.959268 14.2743 
-143.489 89.5132 147.303 -78.0006 -33.5825 93.8934 15.7092 -1.71008 -82.8238 -52.79 -4.94151 -26.2765 53.8332 -4.63475 7.54876 47.8204 9.74295 14.5319 -22.6475 -8.35361 -81.9009 -24.7727 7.65684 3.99167 67.2802 2.06372 7.81551 23.919 6.03367 2.96595 1.24126 -12.0239 -87.6305 50.8852 3.85656 2.88091 39.2174 3.9796 2.70831 16.6793 2.81298 3.90622 36.6919 2.81297 3.90623 96.8858 -53.3513 -89.8606 25.8546 -4.20457 -9.38916 1.32484 -11.7028 -15.4079 -13.1811 -0.82625 2.08927 -83.5254 -52.3792 88.7103 -42.9481 -26.5132 -27.6299 9.38785 78.785 0.0699346 0.909247 -0.035902 -13.9845 16.5139 0.0393019 -6.39982 -15.8566 0.237434 13.2821 
-137.442 90.7029 141.855 -79.5973 -29.6631 93.9757 27.7135 -5.56448 -78.8142 -39.1388 -18.9278 -35.1145 56.6426 -1.61233 12.5739 46.7727 8.94079 12.9628 -25.3479 -1.15175 -81.2353 -19.3085 9.22843 2.58154 68.426 0.0704169 10.4714 24.7893 4.96145 2.75582 1.06425 -12.0409 -86.835 50.8742 4.19013 4.52211 39.2027 4.38492 4.3335 16.7051 2.63977 5.56991 36.7178 2.63975 5.56991 96.3742 -52.0811 -90.7613 24.8308 -5.82286 -13.906 0.377136 -10.0386 -19.4846 -14.0551 -0.811315 1.5577 -83.5624 -54.2681 88.8424 -38.1845 -29.8492 -20.9173 8.82873 76.1242 0.0618948 0.0012383 0.0437744 -13.9069 14.7818 0.386782 -4.3906 -14.8707 0.274061 11.3713 
-131.501 90.2827 136.435 -80.3855 -28.4311 93.2452 46.7308 -2.86786 -77.1087 -17.8163 -43.3262 -24.6178 59.4623 -7.60029 13.1173 38.0528 4.17034 11.9522 -25.1147 3.72999 -79.8299 -18.3602 10.2944 1.74025 69.8464 -2.99137 11.2124 28.1697 0.617512 3.79041 1.1148 -11.9972 -86.5836 50.7722 4.46769 4.92469 39.1004 4.67984 4.72357 16.6115 2.78414 6.03662 36.6242 2.78414 6.03661 96.0679 -51.1613 -91.33 22.7535 -7.18484 -18.9616 -0.859464 -9.38949 -23.1525 -12.3661 -0.636676 0.826808 -83.4791 -55.5889 89.0868 -34.862 -32.3622 -15.5671 8.74762 73.8866 0.0577968 1.31467 -0.0571346 -13.83 14.8834 0.624738 -2.7081 -14.0446 0.270911 10.0966 
-125.043 88.8404 130.265 -79.9956 -27.05 92.0427 59.9844 -4.9773 -81.0274 3.01487 -54.0425 10.2899 62.1747 -19.107 9.64112 29.0136 -0.661819 12.1997 -23.399 7.29463 -78.8275 -22.7197 5.61419 2.54392 69.5159 -4.7631 9.52963 34.4156 -7.13072 3.80146 1.20087 -11.8902 -86.3608 50.545 4.77894 5.24081 38.8731 5.00467 5.02574 16.3897 2.98662 6.43101 36.4024 2.98662 6.431 95.4983 -51.0593 -92.2131 21.7787 -7.26514 -21.1361 -1.6579 -8.12298 -25.9987 -11.433 -0.470159 -0.413325 -82.7979 -55.3014 90.0308 -34.9192 -35.1958 -14.221 11.3547 76.9145 0.0752769 -0.477334 0.093934 -15.1553 15.4905 0.59935 -4.48594 -14.1714 0.560868 11.7474 
-117.81 88.4542 123.073 -80.3693 -26.3855 92.6667 52.8785 -7.82292 -81.551 -7.94062 -45.7484 -0.340998 61.1749 -18.8372 10.0297 27.3471 -1.19946 8.4987 -24.1599 10.0466 -80.8003 -28.1617 2.65364 3.90863 64.4348 0.714139 13.3524 39.5321 -13.867 1.34018 0.76139 -12.0272 -86.253 50.799 4.15674 5.92651 39.122 4.41312 5.73847 16.6767 2.18834 6.89745 36.6893 2.18833 6.89743 95.5894 -52.1954 -91.9331 22.2575 -8.44926 -18.4937 -2.81582 -9.42925 -27.209 -11.1493 -0.440916 -0.602736 -82.431 -54.2382 90.4707 -34.8875 -37.0418 -14.1052 12.9363 78.8307 0.0908762 -1.42285 0.230869 -13.4631 15.8565 0.00417217 -6.08611 -15.0945 0.410964 11.1925 
-110.73 87.9041 115.864 -79.9659 -28.2194 95.0948 38.5033 -12.7688 -85.0766 -21.1245 -27.0764 -10.3434 62.5769 -14.0123 14.359 21.1728 -3.46344 2.58035 -22.5396 5.72978 -86.9209 -42.7375 -1.45702 8.29106 50.6705 15.3846 17.0516 26.5308 4.03181 -11.6825 0.0715792 -12.1786 -86.6648 51.1234 2.73119 5.96024 39.4422 2.99041 5.83482 17.0131 0.817949 6.50314 37.0257 0.817928 6.50313 96.0883 -52.5402 -91.1399 25.8487 -7.97434 -13.2767 -3.00195 -11.5464 -25.0326 -10.661 -0.436097 -0.442159 -82.942 -52.8138 89.6076 -35.3901 -36.6061 -15.4471 12.8745 78.0541 0.0844289 -1.32809 0.221207 -13.3072 16.4546 -0.673451 -7.85003 -15.5818 0.228919 11.2484 
